<!-- Generated by IcoMoon.io -->
<svg version="1.1" xmlns="http://www.w3.org/2000/svg" width="992" height="670" viewBox="0 0 992 670">
<title></title>
<g id="icomoon-ignore">
</g>
<path fill="#72ddf9" d="M717.052 52.663c-1.168-15.206 11.694-29.245 26.9-30.409l155.565-8.191c8.191 0 16.374 2.334 22.22 8.191 5.845 5.845 8.191 14.038 8.191 22.22l-8.191 155.565c-1.168 15.206-12.872 26.9-28.075 26.9h-1.168c-15.206-1.168-28.075-14.038-26.9-30.409l4.688-123.978-123.987 7.014c-16.374 1.177-29.245-11.694-29.245-26.9zM963.86 608.272h-867.929l126.331-126.331 49.129 49.129c10.527 10.527 29.245 10.527 40.937 0l139.193-139.193 49.129 49.129c5.845 5.845 12.872 8.191 19.886 8.191s15.206-3.512 19.886-8.191l301.775-301.775c11.694-11.694 11.694-29.245 0-40.937s-29.245-11.694-40.937 0l-280.733 280.733-49.129-49.129c-5.845-5.845-12.872-8.191-19.886-8.191s-15.206 3.512-19.886 8.191l-139.193 140.361-49.129-49.129c-5.845-5.845-12.872-8.191-19.886-8.191s-15.206 3.512-19.886 8.191l-147.385 146.207v-534.565c0-15.206-12.872-28.075-28.075-28.075s-28.075 12.872-28.075 28.075v603.574c0 15.206 12.872 28.075 28.075 28.075h935.78c15.206 0 28.075-12.872 28.075-28.075 1.168-15.206-11.703-28.065-28.075-28.065z"></path>
</svg>
